#define tkrat_smallmask_width 50
#define tkrat_smallmask_height 50
static char tkrat_smallmask_bits[] = {
   0x00, 0x00, 0x00, 0x00, 0x00, 0x00, 0x00, 0x00, 0x00, 0x00, 0x00, 0x00,
   0x00, 0x00, 0x00, 0xc0, 0x3f, 0x00, 0x00, 0x00, 0x00, 0x00, 0xf0, 0x7f,
   0x00, 0x00, 0x00, 0x00, 0x00, 0xf8, 0xff, 0x00, 0x00, 0x00, 0x00, 0x00,
   0xfc, 0xff, 0x00, 0x00, 0x00, 0x00, 0x00, 0xfc, 0xff, 0x11, 0x00, 0x00,
   0x00, 0x00, 0xfe, 0xff, 0x39, 0x02, 0x00, 0x00, 0x00, 0xff, 0xff, 0x7d,
   0x07, 0x00, 0x00, 0x00, 0xff, 0xff, 0x7d, 0x0f, 0x00, 0x00, 0x00, 0xff,
   0xff, 0x7d, 0x0f, 0x00, 0x00, 0x00, 0xe1, 0xff, 0xf9, 0x0f, 0x00, 0x00,
   0x00, 0xf0, 0xff, 0xf9, 0x1f, 0x00, 0x00, 0x00, 0xf0, 0xff, 0xfd, 0x1f,
   0x00, 0x00, 0x00, 0xe0, 0xff, 0xfc, 0x3f, 0x00, 0x00, 0x00, 0xf0, 0xff,
   0xfe, 0x3f, 0x00, 0x00, 0x00, 0xf8, 0xff, 0xfe, 0x3f, 0x00, 0x00, 0x00,
   0xfe, 0xff, 0xff, 0x3f, 0x00, 0x00, 0x00, 0xfe, 0xff, 0xff, 0x3f, 0x00,
   0x00, 0x00, 0xfe, 0xff, 0xff, 0x3f, 0x00, 0x00, 0x00, 0xfe, 0xff, 0xff,
   0x7f, 0x00, 0x00, 0x40, 0xff, 0xff, 0xff, 0xff, 0x00, 0x00, 0xc0, 0xff,
   0xff, 0xff, 0x7f, 0x00, 0x00, 0xc0, 0xff, 0xff, 0xff, 0x3f, 0x00, 0x00,
   0xc0, 0xff, 0xff, 0xff, 0x1f, 0x00, 0x00, 0xc0, 0xff, 0xff, 0xff, 0x07,
   0x00, 0x00, 0xf0, 0xff, 0xff, 0xff, 0xff, 0x00, 0x00, 0xf0, 0xff, 0xff,
   0xff, 0xff, 0x01, 0x00, 0xf0, 0xff, 0xff, 0xff, 0xff, 0x03, 0x00, 0xf0,
   0xff, 0xff, 0xff, 0xff, 0x03, 0x00, 0xf0, 0xff, 0xff, 0xff, 0x87, 0x04,
   0x00, 0xf8, 0xff, 0xff, 0x7f, 0x80, 0x04, 0x00, 0xf8, 0xff, 0xff, 0x7f,
   0xe0, 0x1f, 0x00, 0xf8, 0xff, 0xff, 0xff, 0xf8, 0x7f, 0x00, 0xf8, 0xff,
   0xff, 0xff, 0xf8, 0x7f, 0x00, 0xf8, 0xff, 0xff, 0xff, 0xf9, 0x7f, 0x00,
   0xf8, 0xff, 0xff, 0xff, 0xf9, 0x7f, 0x00, 0xf8, 0xff, 0xff, 0xff, 0xf9,
   0x7f, 0x00, 0xf8, 0xff, 0xff, 0xff, 0xf9, 0x7f, 0x00, 0xf8, 0xff, 0xff,
   0xff, 0xe1, 0x1f, 0x00, 0xf0, 0xff, 0xff, 0xff, 0x00, 0x00, 0x00, 0xf0,
   0xff, 0xff, 0xff, 0x00, 0x00, 0x00, 0xe0, 0xff, 0xff, 0x7f, 0x00, 0x00,
   0x00, 0xc0, 0xff, 0xff, 0x7f, 0x00, 0x00, 0x00, 0x00, 0xff, 0xff, 0x3f,
   0x00, 0x00, 0x00, 0x00, 0xff, 0xff, 0xff, 0x07, 0x00, 0x00, 0x00, 0x00,
   0xfe, 0xff, 0x0f, 0x00, 0x00, 0x00, 0x00, 0xf8, 0x3f, 0x07, 0x00, 0x00,
   0x00, 0x00, 0x00, 0x04, 0x00, 0x00, 0x00, 0x00, 0x00, 0x00, 0x00, 0x00,
   0x00, 0x00};
